/* XPM */
static char * helpico32_xpm[] = {
"32 32 102 2",
"  	c None",
". 	c #959594",
"+ 	c #979695",
"@ 	c #999897",
"# 	c #9C9B9A",
"$ 	c #9C9B9B",
"% 	c #999898",
"& 	c #969494",
"* 	c #959393",
"= 	c #9A9999",
"- 	c #9D9C9B",
"; 	c #A3A2A2",
"> 	c #A7A6A6",
", 	c #A1A0A0",
"' 	c #9F9E9E",
") 	c #9E9D9C",
"! 	c #9A9A99",
"~ 	c #989896",
"{ 	c #949292",
"] 	c #9D9C9C",
"^ 	c #A1A09F",
"/ 	c #9E9D9D",
"( 	c #9B9A99",
"_ 	c #9E9E9D",
": 	c #9F9D9C",
"< 	c #979696",
"[ 	c #979796",
"} 	c #9B9A9A",
"| 	c #A4A3A3",
"1 	c #A4A3A2",
"2 	c #949493",
"3 	c #939191",
"4 	c #9F9E9D",
"5 	c #999797",
"6 	c #A09F9F",
"7 	c #9C9A9A",
"8 	c #939290",
"9 	c #959493",
"0 	c #969595",
"a 	c #969694",
"b 	c #939392",
"c 	c #929290",
"d 	c #969593",
"e 	c #969594",
"f 	c #949492",
"g 	c #939391",
"h 	c #91918F",
"i 	c #939190",
"j 	c #93918F",
"k 	c #939291",
"l 	c #989795",
"m 	c #A09E9E",
"n 	c #A8A6A6",
"o 	c #AFAFAF",
"p 	c #BBB9BB",
"q 	c #949393",
"r 	c #939292",
"s 	c #AAA8A8",
"t 	c #989796",
"u 	c #A2A1A1",
"v 	c #B2B1B1",
"w 	c #BEBCBE",
"x 	c #949392",
"y 	c #949391",
"z 	c #9A9998",
"A 	c #AAA9A9",
"B 	c #BEBDBD",
"C 	c #929291",
"D 	c #929090",
"E 	c #A9A9A9",
"F 	c #B2B1B2",
"G 	c #B0AEAE",
"H 	c #9A9997",
"I 	c #959492",
"J 	c #969393",
"K 	c #ABAAAA",
"L 	c #B3B2B3",
"M 	c #A9A8A8",
"N 	c #B3B1B1",
"O 	c #B0AFB0",
"P 	c #A8A7A7",
"Q 	c #959392",
"R 	c #999796",
"S 	c #989897",
"T 	c #959494",
"U 	c #919190",
"V 	c #A3A2A1",
"W 	c #BDBBBD",
"X 	c #949291",
"Y 	c #918F8F",
"Z 	c #989797",
"` 	c #A7A7A7",
" .	c #989695",
"..	c #A19F9F",
"+.	c #949290",
"@.	c #91908E",
"#.	c #90908E",
"$.	c #92918F",
"%.	c #8F8D8D",
"&.	c #908E8E",
"*.	c #969493",
"=.	c #929191",
"                                                                ",
"                        . + @ # $ % & %                         ",
"                  * = - # - ; > , ' ) ; @ ! ~                   ",
"              { ] , ^ / ( @ ! _ ] : ] = = ) ] # <               ",
"            [ } | 1 ) $ 2             3 < # 4 4 / 5             ",
"          3 - 6 4 }                         7 4 | ; !           ",
"        8 9 @ $ 0                             a - 1 - b         ",
"      c d e f g                                   ( + e h       ",
"      9 e e i                                     j 9 e 9       ",
"    3 e e k           l m n         0 , o p         g e e 8     ",
"    q e 9           r % , s         t u v w           x e 9     ",
"    e e k           y z u A         @ ; v B           3 e 9 c   ",
"  C e e D           y z u E         @ ; v B             e e r   ",
"  x e 9             y z u A F G n / H ; v B             9 e I   ",
"  J e q             y z u K L v M ' @ ; v B             x e 9   ",
"  9 e 9             y z u K L v M ' @ ; v B             x e 9   ",
"  I e x             y z u A N O P / @ ; v B             Q e 9   ",
"  I e Q             y z u s         R ; v B             x e *   ",
"  q e d             y z u A         S ; v B             T e q   ",
"  3 e e U           g % , A         @ V v W             e e X   ",
"    e e y           Y Z ' `          ...G p           y e e h   ",
"    2 e 9                                             x e I     ",
"    +.e e x       @.#.$.@.%.    $.Y D       &.      X 9 e C     ",
"      b e 9 {                                     h e e 9       ",
"        *.+ d =.                                D 9 e 9 c       ",
"        8 9 e d r                             c x e e 3         ",
"          g d + e y c                       X e e 9 c           ",
"            c I e e 9 X C             U X d e e e g             ",
"                x e e e e e q Q Q 9 9 e e e e x                 ",
"                  j X e e e e e e e e e 9 x =.                  ",
"                        h 3 x 2 Q x =.3                         ",
"                                                                "};
