/* XPM */
static char * helpico64_xpm[] = {
"64 64 129 2",
"  	c None",
". 	c #929292",
"+ 	c #939391",
"@ 	c #939191",
"# 	c #949292",
"$ 	c #999797",
"% 	c #959493",
"& 	c #9A9997",
"* 	c #969594",
"= 	c #A1A09F",
"- 	c #A09F9E",
"; 	c #979695",
"> 	c #9A9999",
", 	c #959492",
"' 	c #949393",
") 	c #959594",
"! 	c #949492",
"~ 	c #929290",
"{ 	c #9C9B9A",
"] 	c #989796",
"^ 	c #A4A3A3",
"/ 	c #A5A4A3",
"( 	c #A09F9F",
"_ 	c #ABAAAA",
": 	c #9F9E9D",
"< 	c #A5A4A4",
"[ 	c #9A9998",
"} 	c #A1A0A0",
"| 	c #979595",
"1 	c #999896",
"2 	c #9B9A9A",
"3 	c #9D9C9B",
"4 	c #A9A8A8",
"5 	c #A8A7A6",
"6 	c #ACABAB",
"7 	c #ADACAC",
"8 	c #A3A2A2",
"9 	c #AFAEAE",
"0 	c #9E9D9C",
"a 	c #A6A5A5",
"b 	c #A6A5A4",
"c 	c #A8A7A7",
"d 	c #999897",
"e 	c #9A9A99",
"f 	c #969494",
"g 	c #9B9A99",
"h 	c #A7A6A6",
"i 	c #AAA9A9",
"j 	c #9C9B9B",
"k 	c #9F9E9E",
"l 	c #979696",
"m 	c #9E9D9D",
"n 	c #969493",
"o 	c #A7A6A5",
"p 	c #A4A3A2",
"q 	c #989797",
"r 	c #9D9C9C",
"s 	c #969595",
"t 	c #A3A2A1",
"u 	c #A2A1A0",
"v 	c #959494",
"w 	c #929191",
"x 	c #919191",
"y 	c #979594",
"z 	c #969593",
"A 	c #A5A4A5",
"B 	c #959393",
"C 	c #959392",
"D 	c #ACABAA",
"E 	c #A2A1A1",
"F 	c #979795",
"G 	c #969694",
"H 	c #A3A3A2",
"I 	c #A9A8A7",
"J 	c #949392",
"K 	c #9C9B99",
"L 	c #AEADAC",
"M 	c #949493",
"N 	c #959391",
"O 	c #949391",
"P 	c #A9A7A7",
"Q 	c #989897",
"R 	c #9D9D9C",
"S 	c #B7B6B7",
"T 	c #BFBEBF",
"U 	c #B0AFAF",
"V 	c #B9B8B8",
"W 	c #C1C0C1",
"X 	c #959593",
"Y 	c #939392",
"Z 	c #949291",
"` 	c #AEADAD",
" .	c #B3B3B3",
"..	c #B5B4B5",
"+.	c #B1B0B0",
"@.	c #ADADAD",
"#.	c #9F9D9C",
"$.	c #B5B4B4",
"%.	c #B6B5B6",
"&.	c #B3B2B2",
"*.	c #B4B3B4",
"=.	c #B2B1B1",
"-.	c #B2B0B0",
";.	c #B4B4B4",
">.	c #AFAFAF",
",.	c #ABABAB",
"'.	c #A7A5A5",
").	c #A2A2A2",
"!.	c #9D9B9B",
"~.	c #999796",
"{.	c #B8B7B8",
"].	c #C0BFC0",
"^.	c #979694",
"/.	c #999998",
"(.	c #A3A1A1",
"_.	c #A6A6A6",
":.	c #ACACAC",
"<.	c #989694",
"[.	c #BDBDBD",
"}.	c #939290",
"|.	c #929291",
"1.	c #919190",
"2.	c #939291",
"3.	c #939292",
"4.	c #969492",
"5.	c #929090",
"6.	c #92918F",
"7.	c #939190",
"8.	c #939393",
"                                                                                                                                ",
"                                                                                                                                ",
"                                                                                                                                ",
"                                                          . + +                                                                 ",
"                                              @ + # $ % & * = - ; > , ' ) !                                                     ",
"                                        ~ * { - ] ; ^ ; / ( _ : > < * [ < } | % +                                               ",
"                                    # 1 2 3 4 5 * * 6 < 7 8 9 = 0 a * } b c { * d e f                                           ",
"                                # * ; / } ; g a * * c - ^ h i j k a ] c c ^ l m a / ( ; n                                       ",
"                              , k ^ / < o p q h d % - [ [ r 8 } : < = ^ d s % a 0 % { t u g @                                   ",
"                          @ * g ^ a 4 g { 4 3 0 q ' v w x         # y $ z % % A 0 ; a } 0 < * B                                 ",
"                        C 2 j / 8 D c / } E | @                             # j t - 4 ; 2 h } j f                               ",
"                      ' g o { } < b : g F                                       G ; H t b I < E ^ G                             ",
"                    ' * > I c 2 t : 1                                               F 3 m < a 4 i d l                           ",
"                  @ * ; * 0 I [ v G                                                   ~ ; = p / h ^ { J                         ",
"                + % ; ; ; * 0 K                                                           % ] t L = * * '                       ",
"                % ; ; ; ; * C                                                               J - u * ; ; * +                     ",
"              M ; ; ; ; * M                                                                   f * ; ; ; ; B                     ",
"            N % ; ; ; ; G                                                                       v * ; ; ; * '                   ",
"            % ; ; ; ; % +                                                                         * ; ; ; ; %                   ",
"          B * ; ; ; * %                 O ; g m 8 P 7               Q ; R a 9 S T                 # * ; ; ; * ,                 ",
"          n ; ; ; ; *                   % ] { ( ^ i 9               d ] - c U V W                   X * ; ; ; *                 ",
"        . * ; ; ; ; B                   J ] { ( ^ i 9               d ] - c U V W                   # % ; ; ; * C               ",
"        M ; ; ; ; %                     J ] { ( ^ i 9               d ] - c U V W                     % * ; ; ; %               ",
"        * ; ; ; * O                     J ] { ( ^ i 9               d ] - c U V W                     Y * ; ; ; * ~             ",
"      + * ; ; ; % N                     J ] { ( ^ i 9               d ] - c U V W                       v ; ; ; * Z             ",
"      Y * ; ; ; n                       J ] { ( ^ i `               d ] - c U V W                       % ; ; ; ; B             ",
"      % * ; ; ; n                       J ] { ( ^ i `  ...+.@.P 8 #.d ] - c U V W                       J * ; ; ; %             ",
"      n ; ; ; * J                       J ] { ( ^ i 9 $.%.&.9 i ^ k [ ] - c U V W                       N * ; ; ; *             ",
"      n ; ; ; * #                       J ] { ( ^ i 9 $.%.&.9 i ^ k [ ] - c U V W                         % ; ; ; v ~           ",
"      % ; ; ; * '                       J ] { ( ^ i 9 $.%.&.9 i ^ k [ ] - c U V W                         % ; ; ; * Z           ",
"    # % ; ; ; *                         J ] { ( ^ i 9 $.%.&.9 i ^ k [ ] - c U V W                         * ; ; ; * C           ",
"    # % ; ; ; *                         J ] { ( ^ i 9 $.%.&.9 i ^ k [ ] - c U V W                         * ; ; ; * O           ",
"      % ; ; ; * #                       J ] { ( ^ i 9 *.%.=.` 4 ^ - [ ] - c U V W                         % ; ; ; * !           ",
"      % ; ; ; * @                       J ] { ( ^ i 9 -.;.>.,.'.).!.d ] - c U V W                         * ; ; ; * #           ",
"      % ; ; ; * Y                       J ] { ( ^ i 9               ] ] - c U V W                         v ; ; ; *             ",
"      % ; ; ; * ,                       J ] { ( ^ i 9               d ] - c U V W                       Y * ; ; ; *             ",
"      ' * ; ; ; %                       J ] { ( ^ i 9               d ] - c U V W                       , * ; ; ; %             ",
"      O * ; ; ; *                       J ] { ( ^ i 9               d ] - c U V W                       % ; ; ; ; J             ",
"        * ; ; ; * +                     J ] { ( ^ i 9               d ] - c U V W                       * ; ; ; * Z             ",
"        % ; ; ; * C                     % ] { - ^ 4 `               ~.; : h 9 {.].                    # ; ; ; ; %               ",
"        M * ; ; ; %                       ^./.m (._.:.              <.z !.a @.%.[.                    % * ; ; ; v               ",
"          * ; ; ; * C                                                                               Y * ; ; ; * !               ",
"          % ; ; ; ; * +             Z   @   @ , Z   }.      , n @   +   # C |.  + # C               C * ; ; ; n                 ",
"          @ * ; ; ; * %             J 1.J   , , +   2.      J Y J   !   '       '   + O           ' ; ; ; ; * C                 ",
"            n ; ; ; ; * !           J   #   # Y     O       C @     !   M       3.  # Y         + * ; ; ; ; *                   ",
"            ~ * ; ; ; ; * 4.        5.  x   + # Y   + Z #   6.      !   # + 7.    + @           % * ; ; ; % C                   ",
"              ! * ; ; ; ; * #                                                                 % * ; ; ; ; %                     ",
"                % ; ; ; ; * M N                                                             % * ; ; ; ; v                       ",
"                  * ; ; ; ; * v +                                                         % * ; ; ; ; * Y                       ",
"                  ! * ; ; ; ; ; * ,                                                   O * * ; ; ; ; * Y                         ",
"                    O * ; ; ; ; ; ; n #                                             , * ; ; ; ; ; * ,                           ",
"                      X ) ; ; ; ; ; * * M +                                     , * * ; ; ; ; ; * 3.                            ",
"                        ~ % ; ; ; ; ; ; * % J ,                           ! M * * ; ; ; ; ; ; % 3.                              ",
"                            J % ; ; ; ; ; ; * * % ) % % 8.C # O N # % % % * * ; ; ; ; ; ; * % #                                 ",
"                              ! * ; ; ; ; ; ; ; ; ; ; * s * * * G * ; ; ; ; ; ; ; ; ; ; % Y                                     ",
"                                  M * * ; ; ; ; ; ; ; ; ; ; ; ; ; ; ; ; ; ; ; ; ; ; * % N                                       ",
"                                      C % ; ; ; ; ; ; ; ; ; ; ; ; ; ; ; ; ; ; * * ' B                                           ",
"                                          O , v * * * ; ; ; ; ; ; ; * * * z C O                                                 ",
"                                                @ ' J , C % * % % v J ! #                                                       ",
"                                                                                                                                ",
"                                                                                                                                ",
"                                                                                                                                ",
"                                                                                                                                ",
"                                                                                                                                "};
